<?xml version="1.0" encoding="UTF-8" standalone="no"?>
<!-- Created with Inkscape (http://www.inkscape.org/) -->

<svg
   xmlns:dc="http://purl.org/dc/elements/1.1/"
   xmlns:cc="http://creativecommons.org/ns#"
   xmlns:rdf="http://www.w3.org/1999/02/22-rdf-syntax-ns#"
   xmlns:svg="http://www.w3.org/2000/svg"
   xmlns="http://www.w3.org/2000/svg"
   xmlns:sodipodi="http://sodipodi.sourceforge.net/DTD/sodipodi-0.dtd"
   xmlns:inkscape="http://www.inkscape.org/namespaces/inkscape"
   width="420mm"
   height="297mm"
   viewBox="0 0 420 297"
   version="1.1"
   id="SVGRoot"
   inkscape:version="0.92.3 (2405546, 2018-03-11)"
   sodipodi:docname="appLogo.svg">
  <sodipodi:namedview
     id="base"
     pagecolor="#ffffff"
     bordercolor="#ffffff"
     borderopacity="0"
     inkscape:pageopacity="0.0"
     inkscape:pageshadow="2"
     inkscape:zoom="2.0404925"
     inkscape:cx="4070.9077"
     inkscape:cy="-926.64574"
     inkscape:document-units="mm"
     inkscape:current-layer="layer1"
     showgrid="false"
     inkscape:window-width="1920"
     inkscape:window-height="1017"
     inkscape:window-x="-8"
     inkscape:window-y="-8"
     inkscape:window-maximized="1"
     inkscape:snap-grids="true"
     showguides="true"
     inkscape:snap-page="false" />
  <defs
     id="defs3785">
    <inkscape:path-effect
       effect="perspective-envelope"
       up_left_point="248.26546,3.3744709"
       up_right_point="256.27686,3.8318074"
       down_left_point="248.26546,29.375467"
       down_right_point="256.27686,29.833321"
       id="path-effect930"
       is_visible="true"
       deform_type="envelope_deformation"
       horizontal_mirror="false"
       vertical_mirror="false"
       overflow_perspective="false" />
    <inkscape:path-effect
       effect="perspective-envelope"
       up_left_point="240.61787,2.3440429"
       up_right_point="247.37249,3.2830037"
       down_left_point="240.61787,28.345556"
       down_right_point="247.37249,29.284001"
       id="path-effect928"
       is_visible="true"
       deform_type="envelope_deformation"
       horizontal_mirror="false"
       vertical_mirror="false"
       overflow_perspective="false" />
    <inkscape:path-effect
       effect="perspective-envelope"
       up_left_point="232.39305,0.74827473"
       up_right_point="239.42828,2.1388875"
       down_left_point="232.39305,26.749271"
       down_right_point="239.42828,28.1404"
       id="path-effect926"
       is_visible="true"
       deform_type="envelope_deformation"
       horizontal_mirror="false"
       vertical_mirror="false"
       overflow_perspective="false" />
    <inkscape:path-effect
       effect="perspective-envelope"
       up_left_point="225.58933,-0.83457438"
       up_right_point="231.43393,0.53898519"
       down_left_point="225.58933,25.166422"
       down_right_point="231.43393,26.539981"
       id="path-effect924"
       is_visible="true"
       deform_type="envelope_deformation"
       horizontal_mirror="false"
       vertical_mirror="false"
       overflow_perspective="false" />
    <inkscape:path-effect
       effect="perspective-envelope"
       up_left_point="217.28854,-2.9362548"
       up_right_point="223.94343,-1.236617"
       down_left_point="217.28854,23.064742"
       down_right_point="223.94343,24.76438"
       id="path-effect922"
       is_visible="true"
       deform_type="envelope_deformation"
       horizontal_mirror="false"
       vertical_mirror="false"
       overflow_perspective="false" />
    <inkscape:path-effect
       effect="perspective-envelope"
       up_left_point="209.12263,-5.0384522"
       up_right_point="215.77752,-3.3269287"
       down_left_point="209.12263,20.962545"
       down_right_point="215.77752,22.674068"
       id="path-effect920"
       is_visible="true"
       deform_type="envelope_deformation"
       horizontal_mirror="false"
       vertical_mirror="false"
       overflow_perspective="false" />
    <inkscape:path-effect
       effect="perspective-envelope"
       up_left_point="200.96086,-7.027478"
       up_right_point="208.48081,-5.1996826"
       down_left_point="200.96086,18.973519"
       down_right_point="208.48081,20.801314"
       id="path-effect918"
       is_visible="true"
       deform_type="envelope_deformation"
       horizontal_mirror="false"
       vertical_mirror="false"
       overflow_perspective="false" />
    <inkscape:path-effect
       effect="perspective-envelope"
       up_left_point="188.96563,-9.4376298"
       up_right_point="197.34351,-7.8351805"
       down_left_point="189.5383,16.644462"
       down_right_point="197.34351,18.165816"
       id="path-effect916"
       is_visible="true"
       deform_type="envelope_deformation"
       horizontal_mirror="false"
       vertical_mirror="false"
       overflow_perspective="false" />
    <inkscape:path-effect
       effect="perspective-envelope"
       up_left_point="181.76978,-10.39058"
       up_right_point="189.47216,-9.224243"
       down_left_point="181.76978,15.610416"
       down_right_point="189.5383,16.644462"
       id="path-effect914"
       is_visible="true"
       deform_type="envelope_deformation"
       horizontal_mirror="false"
       vertical_mirror="false"
       overflow_perspective="false" />
    <inkscape:path-effect
       effect="perspective-envelope"
       up_left_point="170.14413,-10.894425"
       up_right_point="181.32123,-10.435539"
       down_left_point="170.14413,15.106571"
       down_right_point="181.32123,15.565458"
       id="path-effect912"
       is_visible="true"
       deform_type="envelope_deformation"
       horizontal_mirror="false"
       vertical_mirror="false"
       overflow_perspective="false" />
    <inkscape:path-effect
       effect="perspective-envelope"
       up_left_point="162.1839,-10.284127"
       up_right_point="169.17882,-10.863936"
       down_left_point="162.1839,15.717387"
       down_right_point="169.17882,15.13706"
       id="path-effect910"
       is_visible="true"
       deform_type="envelope_deformation"
       horizontal_mirror="false"
       vertical_mirror="false"
       overflow_perspective="false" />
    <inkscape:path-effect
       effect="perspective-envelope"
       up_left_point="152.88222,-8.3792964"
       up_right_point="161.12556,-10.136332"
       down_left_point="152.85734,17.6382"
       down_right_point="161.12556,15.864665"
       id="path-effect908"
       is_visible="true"
       deform_type="envelope_deformation"
       horizontal_mirror="false"
       vertical_mirror="false"
       overflow_perspective="false" />
  </defs>
  <metadata
     id="metadata3788">
    <rdf:RDF>
      <cc:Work
         rdf:about="">
        <dc:format>image/svg+xml</dc:format>
        <dc:type
           rdf:resource="http://purl.org/dc/dcmitype/StillImage" />
        <dc:title />
      </cc:Work>
    </rdf:RDF>
  </metadata>
  <g
     id="layer1"
     inkscape:groupmode="layer"
     inkscape:label="Layer 1">
    <g
       id="g1364">
      <path
         inkscape:connector-curvature="0"
         id="path4737"
         d="m 1077.1056,490.95679 -0.7044,0.29613 -0.7033,0.29576 -39.1242,16.44286 v 44.88104 c 0,22.33834 18.182,40.52067 40.5203,40.52067 22.3384,0 40.5207,-18.18231 40.5207,-40.52067 v -44.59423 z"
         style="color:#000000;font-style:normal;font-variant:normal;font-weight:normal;font-stretch:normal;font-size:medium;line-height:normal;font-family:sans-serif;font-variant-ligatures:normal;font-variant-position:normal;font-variant-caps:normal;font-variant-numeric:normal;font-variant-alternates:normal;font-feature-settings:normal;text-indent:0;text-align:start;text-decoration:none;text-decoration-line:none;text-decoration-style:solid;text-decoration-color:#000000;letter-spacing:normal;word-spacing:normal;text-transform:none;writing-mode:lr-tb;direction:ltr;text-orientation:mixed;dominant-baseline:auto;baseline-shift:baseline;text-anchor:start;white-space:normal;shape-padding:0;clip-rule:nonzero;display:inline;overflow:visible;visibility:visible;opacity:1;isolation:auto;mix-blend-mode:normal;color-interpolation:sRGB;color-interpolation-filters:linearRGB;solid-color:#000000;solid-opacity:1;vector-effect:none;fill:#999999;fill-opacity:1;fill-rule:nonzero;stroke:none;stroke-width:3.60406852;stroke-linecap:butt;stroke-linejoin:miter;stroke-miterlimit:4;stroke-dasharray:none;stroke-dashoffset:0;stroke-opacity:1;color-rendering:auto;image-rendering:auto;shape-rendering:auto;text-rendering:auto;enable-background:accumulate" />
      <path
         inkscape:connector-curvature="0"
         id="path4728"
         d="m 1077.0996,492.91423 -0.7036,0.29575 -38.0202,15.97874 v 43.68386 c 0,21.36229 17.3559,38.71856 38.7182,38.71856 21.3623,0 38.7186,-17.35627 38.7186,-38.71856 v -43.40486 z"
         style="color:#000000;font-style:normal;font-variant:normal;font-weight:normal;font-stretch:normal;font-size:medium;line-height:normal;font-family:sans-serif;font-variant-ligatures:normal;font-variant-position:normal;font-variant-caps:normal;font-variant-numeric:normal;font-variant-alternates:normal;font-feature-settings:normal;text-indent:0;text-align:start;text-decoration:none;text-decoration-line:none;text-decoration-style:solid;text-decoration-color:#000000;letter-spacing:normal;word-spacing:normal;text-transform:none;writing-mode:lr-tb;direction:ltr;text-orientation:mixed;dominant-baseline:auto;baseline-shift:baseline;text-anchor:start;white-space:normal;shape-padding:0;clip-rule:nonzero;display:inline;overflow:visible;visibility:visible;opacity:1;isolation:auto;mix-blend-mode:normal;color-interpolation:sRGB;color-interpolation-filters:linearRGB;solid-color:#000000;solid-opacity:1;vector-effect:none;fill:#ffffff;fill-opacity:1;fill-rule:nonzero;stroke:none;stroke-width:3.60406852;stroke-linecap:butt;stroke-linejoin:miter;stroke-miterlimit:4;stroke-dasharray:none;stroke-dashoffset:0;stroke-opacity:1;color-rendering:auto;image-rendering:auto;shape-rendering:auto;text-rendering:auto;enable-background:accumulate" />
      <path
         inkscape:connector-curvature="0"
         id="path4720"
         d="m 1077.0943,494.87144 -36.9164,15.51535 v 42.48594 c 0,20.3884 16.528,36.91644 36.9164,36.91644 20.3884,0 36.9165,-16.52804 36.9165,-36.91644 v -42.21625 z"
         style="opacity:1;fill:#666666;stroke-width:0.21396627" />
      <g
         style="opacity:1"
         transform="matrix(0.7208137,0,0,0.7208137,929.17154,552.3821)"
         id="g991">
        <path
           inkscape:connector-curvature="0"
           style="opacity:1;fill:#000000;stroke:#000000;stroke-width:0;stroke-miterlimit:4;stroke-dasharray:none"
           d="m 649.62109,-47.628906 c -31.56323,0.06778 -63.08269,4.906802 -94.44531,17.269531 v 111 c 31.36262,-12.362728 62.88208,-17.201755 94.44531,-17.269531 42.92485,-0.09215 85.92986,8.626527 128.73047,19.199218 73.7484,18.217468 146.85582,41.957598 217.71485,35.480468 V 7.0507812 C 925.20738,13.527917 852.09996,-10.212215 778.35156,-28.429688 735.55095,-39.002379 692.54594,-47.721066 649.62109,-47.628906 Z"
           id="path4762"
           transform="scale(0.26458333)" />
        <path
           inkscape:connector-curvature="0"
           style="opacity:1;fill:#000000;stroke:#000000;stroke-width:0;stroke-miterlimit:4;stroke-dasharray:none"
           d="m 542.07227,-16.238281 c -7.99545,3.705491 -15.98003,7.9183217 -23.95118,12.7011716 V 107.46289 c 19.1181,-11.471246 38.31126,-19.711462 57.55469,-25.355468 l -20.40039,-1.458984 v 0.07617 l -0.01,-0.07813 -0.0898,-0.0059 0.0605,-0.207031 z"
           transform="scale(0.26458333)"
           id="path4772" />
        <path
           inkscape:connector-curvature="0"
           style="opacity:1;fill:#000000;stroke:#000000;stroke-width:0;stroke-miterlimit:4;stroke-dasharray:none"
           d="m 1033.1211,-6.828125 c -18.6814,4.8489715 -37.54359,7.09311706 -56.55469,7.42578125 l 19.5,6.45312495 12.00779,102.1054688 c 8.3827,-1.18727 16.733,-2.82642 25.0469,-4.98437 z"
           transform="scale(0.26458333)"
           id="path4812" />
        <path
           inkscape:connector-curvature="0"
           style="font-style:normal;font-variant:normal;font-weight:normal;font-stretch:normal;font-size:23.10475349px;line-height:1.25;font-family:'League Gothic';-inkscape-font-specification:'League Gothic, Normal';font-variant-ligatures:normal;font-variant-caps:normal;font-variant-numeric:normal;font-feature-settings:normal;text-align:start;letter-spacing:0px;word-spacing:0px;writing-mode:lr-tb;text-anchor:start;fill:#ffffff;fill-opacity:1;stroke:none;stroke-width:1.62230623"
           d="m 152.85734,17.6382 c 0,0 2.60966,-26.5684313 2.60966,-26.5684313 0,0 3.07378,-0.6551658 3.07378,-0.6551658 0,0 2.58478,25.4500621 2.58478,25.4500621 0,0 -2.45244,0.526048 -2.45244,0.526048 0,0 -0.46534,-5.207314 -0.46534,-5.207314 0,0 -2.42758,0.520048 -2.42758,0.520048 0,0 -0.47042,5.408705 -0.47042,5.408705 0,0 -2.45244,0.526048 -2.45244,0.526048 z m 4.28236,-18.46845632 c 0,0 -0.0696,-0.65741128 -0.0696,-0.65741128 0,0 -0.13985,0.029864 -0.13985,0.029864 0,0 -0.0702,0.6872835 -0.0702,0.6872835 0,0 -0.72733,8.3646009 -0.72733,8.3646009 0,0 1.72652,-0.3694994 1.72652,-0.3694994 0,0 -0.7195,-8.05483802 -0.7195,-8.05483802 z"
           id="path871" />
        <path
           inkscape:connector-curvature="0"
           style="font-style:normal;font-variant:normal;font-weight:normal;font-stretch:normal;font-size:23.10475349px;line-height:1.25;font-family:'League Gothic';-inkscape-font-specification:'League Gothic, Normal';font-variant-ligatures:normal;font-variant-caps:normal;font-variant-numeric:normal;font-feature-settings:normal;text-align:start;letter-spacing:0px;word-spacing:0px;writing-mode:lr-tb;text-anchor:start;fill:#ffffff;fill-opacity:1;stroke:none;stroke-width:1.62230623"
           d="m 162.1839,15.717387 c 0,0 0,-26.001514 0,-26.001514 0,0 1.9819,-0.16428 1.9819,-0.16428 2.33163,-0.193269 3.59072,0.409878 4.2669,2.3348607 0.65285,1.9269097 0.74612,5.1737234 0.74612,10.2677952 0,5.0940732 -0.0933,8.3209781 -0.74612,10.3561681 -0.67618,2.03713 -1.93527,2.849102 -4.2669,3.042544 0,0 -1.9819,0.164426 -1.9819,0.164426 z m 2.51818,-4.029521 c 0.8627,-0.07156 1.35234,-0.253686 1.60882,-1.54849 0.11659,-0.6110582 0.20985,-1.5385651 0.23317,-2.77865 0.0233,-1.2400863 0.0233,-2.9027467 0.0233,-5.0252924 0,-2.12254719 0,-3.7852076 -0.0233,-5.021426 -0.0233,-1.200844 -0.11658,-2.1128823 -0.23317,-2.7399797 -0.25648,-1.2168899 -0.74612,-1.3178027 -1.60882,-1.2462841 0,0 0,18.3601222 0,18.3601222 z"
           id="path873" />
        <path
           inkscape:connector-curvature="0"
           style="font-style:normal;font-variant:normal;font-weight:normal;font-stretch:normal;font-size:23.10475349px;line-height:1.25;font-family:'League Gothic';-inkscape-font-specification:'League Gothic, Normal';font-variant-ligatures:normal;font-variant-caps:normal;font-variant-numeric:normal;font-feature-settings:normal;text-align:start;letter-spacing:0px;word-spacing:0px;writing-mode:lr-tb;text-anchor:start;fill:#ffffff;fill-opacity:1;stroke:none;stroke-width:1.62230623"
           d="m 174.38773,15.280796 c 0,0 -1.94788,-0.07997 -1.94788,-0.07997 0,0 -2.29572,-26.095249 -2.29572,-26.095249 0,0 2.3189,0.0952 2.3189,0.0952 0,0 0.99714,13.5543815 0.99714,13.5543815 0,0 0.0464,0.8509157 0.0464,0.8509157 0,0 0.18551,0.00762 0.18551,0.00762 0,0 0.0696,-0.8461564 0.0696,-0.8461564 0,0 1.0667,-13.4696488 1.0667,-13.4696488 0,0 1.80874,0.07426 1.80874,0.07426 0,0 1.0667,13.5572375 1.0667,13.5572375 0,0 0.0696,0.8518675 0.0696,0.8518675 0,0 0.18551,0.00762 0.18551,0.00762 0,0 0.0464,-0.8471083 0.0464,-0.8471083 0,0 0.99713,-13.4725057 0.99713,-13.4725057 0,0 2.31891,0.0952 2.31891,0.0952 0,0 -2.29572,25.906744 -2.29572,25.906744 0,0 -1.94788,-0.07997 -1.94788,-0.07997 0,0 -1.15946,-12.358278 -1.15946,-12.358278 0,0 -0.13914,-1.52686 -0.13914,-1.52686 0,0 -0.0927,-0.00381 -0.0927,-0.00381 0,0 -0.13914,1.5154352 -0.13914,1.5154352 0,0 -1.15943,12.2630738 -1.15943,12.2630738 z"
           id="path875" />
        <path
           inkscape:connector-curvature="0"
           style="font-style:normal;font-variant:normal;font-weight:normal;font-stretch:normal;font-size:23.10475349px;line-height:1.25;font-family:'League Gothic';-inkscape-font-specification:'League Gothic, Normal';font-variant-ligatures:normal;font-variant-caps:normal;font-variant-numeric:normal;font-feature-settings:normal;text-align:start;letter-spacing:0px;word-spacing:0px;writing-mode:lr-tb;text-anchor:start;fill:#ffffff;fill-opacity:1;stroke:none;stroke-width:1.62230623"
           d="m 181.76978,15.610416 c 0,0 2.41515,-25.635281 2.41515,-25.635281 0,0 2.87207,0.4349057 2.87207,0.4349057 0,0 2.4813,26.2344213 2.4813,26.2344213 0,0 -2.30422,-0.306709 -2.30422,-0.306709 0,0 -0.44763,-5.347281 -0.44763,-5.347281 0,0 -2.27832,-0.31172 -2.27832,-0.31172 0,0 -0.43413,5.238373 -0.43413,5.238373 0,0 -2.30422,-0.306709 -2.30422,-0.306709 z m 3.99286,-16.9655511 c 0,0 -0.0663,-0.679913 -0.0663,-0.679913 0,0 -0.13088,-0.019097 -0.13088,-0.019097 0,0 -0.0646,0.6609354 -0.0646,0.6609354 0,0 -0.66814,8.0922328 -0.66814,8.0922328 0,0 1.61896,0.2260892 1.61896,0.2260892 0,0 -0.68902,-8.280247 -0.68902,-8.280247 z"
           id="path877" />
        <path
           inkscape:connector-curvature="0"
           style="font-style:normal;font-variant:normal;font-weight:normal;font-stretch:normal;font-size:23.10475349px;line-height:1.25;font-family:'League Gothic';-inkscape-font-specification:'League Gothic, Normal';font-variant-ligatures:normal;font-variant-caps:normal;font-variant-numeric:normal;font-feature-settings:normal;text-align:start;letter-spacing:0px;word-spacing:0px;writing-mode:lr-tb;text-anchor:start;fill:#ffffff;fill-opacity:1;stroke:none;stroke-width:1.62230623"
           d="m 193.14623,-0.32941489 c 0,0 0.0777,0.26243307 0.0777,0.26243307 0,0 0.0499,0.0096062 0.0499,0.0096062 0,0 0.0722,-0.23359551 0.0722,-0.23359551 0,0 1.28997,-8.06207327 1.28997,-8.06207327 0,0 2.70748,0.5178638 2.70748,0.5178638 0,0 -2.69938,14.4066723 -2.69938,14.4066723 0,0 0.0818,11.0841143 0.0818,11.0841143 0,0 -2.57001,-0.500934 -2.57001,-0.500934 0,0 -0.16209,-11.0954863 -0.16209,-11.0954863 0,0 -3.02818,-15.4968156 -3.02818,-15.4968156 0,0 2.70749,0.517866 2.70749,0.517866 0,0 1.47311,8.59034896 1.47311,8.59034896 z"
           id="path879" />
        <path
           inkscape:connector-curvature="0"
           style="font-style:normal;font-variant:normal;font-weight:normal;font-stretch:normal;font-size:23.10475349px;line-height:1.25;font-family:'League Gothic';-inkscape-font-specification:'League Gothic, Normal';font-variant-ligatures:normal;font-variant-caps:normal;font-variant-numeric:normal;font-feature-settings:normal;text-align:start;letter-spacing:0px;word-spacing:0px;writing-mode:lr-tb;text-anchor:start;fill:#ffffff;fill-opacity:1;stroke:none;stroke-width:1.62230623"
           d="m 200.96086,-3.1007963 c 0,0 0,-3.9266817 0,-3.9266817 0,0 7.51995,1.8277954 7.51995,1.8277954 0,0 0,3.9266817 0,3.9266817 0,0 -2.45844,-0.5975475 -2.45844,-0.5975475 0,0 0,22.0743154 0,22.0743154 0,0 -2.60306,-0.632698 -2.60306,-0.632698 0,0 0,-22.0743152 0,-22.0743152 0,0 -2.45845,-0.5975501 -2.45845,-0.5975501 z"
           id="path881" />
        <path
           inkscape:connector-curvature="0"
           style="font-style:normal;font-variant:normal;font-weight:normal;font-stretch:normal;font-size:23.10475349px;line-height:1.25;font-family:'League Gothic';-inkscape-font-specification:'League Gothic, Normal';font-variant-ligatures:normal;font-variant-caps:normal;font-variant-numeric:normal;font-feature-settings:normal;text-align:start;letter-spacing:0px;word-spacing:0px;writing-mode:lr-tb;text-anchor:start;fill:#ffffff;fill-opacity:1;stroke:none;stroke-width:1.62230623"
           d="m 215.77752,17.169196 c -0.0231,1.032714 -0.16176,1.931844 -0.41594,2.662775 -0.20796,0.638954 -0.53146,1.213568 -0.9936,1.614041 -0.46215,0.435092 -1.08605,0.586233 -1.91791,0.372293 -0.83186,-0.21394 -1.47886,-0.691934 -1.94101,-1.36474 -0.46214,-0.638182 -0.76253,-1.373252 -0.97051,-2.119177 -0.25417,-0.861672 -0.39282,-1.832118 -0.41592,-2.876715 0,0 0,-14.99125337 0,-14.99125337 0.0231,-0.99809183 0.16175,-1.89722373 0.41592,-2.62815683 0.20798,-0.6389496 0.50837,-1.2541303 0.97051,-1.6546029 0.46215,-0.40047 1.10915,-0.5802918 1.94101,-0.3663516 0.83186,0.2139401 1.45576,0.7206148 1.91791,1.3587989 0.46214,0.6381815 0.78564,1.413818 0.9936,2.15973897 0.25418,0.86167325 0.39283,1.83211933 0.41594,2.84209683 0,0 0,14.991253 0,14.991253 z M 213.28193,1.5361201 c 0,-0.69243652 -0.0924,-1.20090912 -0.32349,-1.67580215 -0.11555,-0.20282506 -0.3004,-0.35423042 -0.50837,-0.40771737 -0.43904,-0.11291291 -0.647,0.31830905 -0.73943,0.74462178 -0.0693,0.25914993 -0.0924,0.56480369 -0.0924,0.91102274 0,0 0,14.9912539 0,14.9912539 0,0.727058 0.11554,1.24148 0.34661,1.681746 0.11554,0.202825 0.27729,0.348289 0.48525,0.401773 0.43904,0.112913 0.64701,-0.249062 0.73944,-0.744619 0.0693,-0.224528 0.0924,-0.530183 0.0924,-0.911023 0,0 -1e-5,-14.9912559 -1e-5,-14.9912559 z"
           id="path883" />
        <path
           inkscape:connector-curvature="0"
           style="font-style:normal;font-variant:normal;font-weight:normal;font-stretch:normal;font-size:23.10475349px;line-height:1.25;font-family:'League Gothic';-inkscape-font-specification:'League Gothic, Normal';font-variant-ligatures:normal;font-variant-caps:normal;font-variant-numeric:normal;font-feature-settings:normal;text-align:start;letter-spacing:0px;word-spacing:0px;writing-mode:lr-tb;text-anchor:start;fill:#ffffff;fill-opacity:1;stroke:none;stroke-width:1.62230623"
           d="m 223.94343,19.259508 c -0.0231,1.032755 -0.16175,1.932135 -0.41594,2.663518 -0.20796,0.639325 -0.53145,1.21452 -0.9936,1.615815 -0.46214,0.43592 -1.08604,0.588176 -1.9179,0.375721 -0.83187,-0.212457 -1.47887,-0.689295 -1.94101,-1.361274 -0.46215,-0.637358 -0.76254,-1.371892 -0.9705,-2.117443 -0.25419,-0.86122 -0.39283,-1.831416 -0.41594,-2.875975 0,0 0,-14.991253 0,-14.991253 0.0231,-0.9981331 0.16175,-1.89751257 0.41594,-2.62889706 0.20796,-0.6393236 0.50835,-1.25504084 0.9705,-1.65633624 0.46214,-0.401298 1.10914,-0.5822753 1.94101,-0.3698183 0.83186,0.2124544 1.45576,0.7180149 1.9179,1.355371 0.46215,0.6373587 0.78564,1.41241486 0.9936,2.1579644 0.25419,0.8612219 0.39284,1.8314203 0.41594,2.8413541 0,0 0,14.9912531 0,14.9912531 z M 221.44785,3.6308916 c 0,-0.6924366 -0.0924,-1.2007441 -0.3235,-1.675227 -0.11554,-0.2026161 -0.3004,-0.3536939 -0.50836,-0.4068069 -0.43904,-0.1121288 -0.64701,0.3194621 -0.73944,0.7459399 -0.0693,0.2592737 -0.0924,0.5649687 -0.0924,0.9111877 0,0 0,14.9912537 0,14.9912537 0,0.727058 0.11554,1.241274 0.34662,1.681129 0.11553,0.202617 0.27728,0.347792 0.48525,0.400907 0.43904,0.112129 0.647,-0.25022 0.73943,-0.745942 0.0693,-0.224652 0.0924,-0.530348 0.0924,-0.911188 0,0 0,-14.9912534 0,-14.9912534 z"
           id="path885" />
        <path
           inkscape:connector-curvature="0"
           style="font-style:normal;font-variant:normal;font-weight:normal;font-stretch:normal;font-size:23.10475349px;line-height:1.25;font-family:'League Gothic';-inkscape-font-specification:'League Gothic, Normal';font-variant-ligatures:normal;font-variant-caps:normal;font-variant-numeric:normal;font-feature-settings:normal;text-align:start;letter-spacing:0px;word-spacing:0px;writing-mode:lr-tb;text-anchor:start;fill:#ffffff;fill-opacity:1;stroke:none;stroke-width:1.62230623"
           d="m 225.58933,-0.83457438 c 0,0 2.51481,0.5910132 2.51481,0.5910132 0,0 0,22.46344618 0,22.46344618 0,0 3.32979,0.782546 3.32979,0.782546 0,0 0,3.53755 0,3.53755 0,0 -5.8446,-1.373559 -5.8446,-1.373559 0,0 0,-26.00099638 0,-26.00099638 z"
           id="path887" />
        <path
           inkscape:connector-curvature="0"
           style="font-style:normal;font-variant:normal;font-weight:normal;font-stretch:normal;font-size:23.10475349px;line-height:1.25;font-family:'League Gothic';-inkscape-font-specification:'League Gothic, Normal';font-variant-ligatures:normal;font-variant-caps:normal;font-variant-numeric:normal;font-feature-settings:normal;text-align:start;letter-spacing:0px;word-spacing:0px;writing-mode:lr-tb;text-anchor:start;fill:#ffffff;fill-opacity:1;stroke:none;stroke-width:1.62230623"
           d="m 232.39305,26.749271 c 0,0 0,-26.00099627 0,-26.00099627 0,0 2.22782,0.44036017 2.22782,0.44036017 1.50085,0.296665 2.67339,0.952946 3.44726,2.2025721 0.77388,1.2496314 1.17254,3.0264923 1.17254,5.6089542 0,1.2381658 -0.0703,2.1440428 -0.32831,2.9420708 -0.25796,0.798031 -0.65662,1.426739 -1.24289,2.124485 0.63317,0.655818 1.10218,1.739074 1.4774,3.475935 0.18761,0.850745 0.28141,1.930576 0.28141,3.239496 0,1.945693 -0.23451,3.632758 -0.82078,4.861128 -0.58627,1.228368 -1.59465,1.913376 -3.0955,1.722728 0,0 -3.11895,-0.616733 -3.11895,-0.616733 z m 2.53268,-14.781522 c 0.21106,0.04173 0.70353,0.174468 1.12564,-0.166602 0.42211,-0.341061 0.75043,-1.125179 0.75043,-2.9293511 0,-1.8041741 -0.32832,-2.7180969 -0.75043,-3.2260503 -0.42211,-0.5079505 -0.91458,-0.5699224 -1.12564,-0.6116445 0,0 0,6.9336479 0,6.9336479 z m 0,11.497121 c 0.21106,0.04173 0.70353,0.209859 1.12564,-0.166566 0.42211,-0.376423 0.75043,-1.33741 0.75043,-3.459967 0,-2.122556 -0.32832,-3.213368 -0.75043,-3.756711 -0.42211,-0.543337 -0.91458,-0.569949 -1.12564,-0.611677 0,0 0,7.994921 0,7.994921 z"
           id="path889" />
        <path
           inkscape:connector-curvature="0"
           style="font-style:normal;font-variant:normal;font-weight:normal;font-stretch:normal;font-size:23.10475349px;line-height:1.25;font-family:'League Gothic';-inkscape-font-specification:'League Gothic, Normal';font-variant-ligatures:normal;font-variant-caps:normal;font-variant-numeric:normal;font-feature-settings:normal;text-align:start;letter-spacing:0px;word-spacing:0px;writing-mode:lr-tb;text-anchor:start;fill:#ffffff;fill-opacity:1;stroke:none;stroke-width:1.62230623"
           d="m 247.37249,23.779129 c -0.0234,1.035398 -0.16417,1.950634 -0.42216,2.711091 -0.21109,0.66311 -0.53943,1.275307 -1.00851,1.729463 -0.46906,0.488783 -1.10231,0.712402 -1.94663,0.595096 -0.84433,-0.117305 -1.50104,-0.520145 -1.9701,-1.139273 -0.46908,-0.584507 -0.77397,-1.284695 -0.98505,-2.006473 -0.25799,-0.832162 -0.39871,-1.786522 -0.42217,-2.828458 0,0 0,-14.9915512 0,-14.9915512 0.0234,-1.0007938 0.16418,-1.9160395 0.42217,-2.6764974 0.21108,-0.6631086 0.51597,-1.3131755 0.98505,-1.7673063 0.46906,-0.4541308 1.12577,-0.709066 1.9701,-0.5916961 0.84432,0.1173699 1.47757,0.5516187 1.94663,1.1361523 0.46908,0.5845337 0.79742,1.3226132 1.00851,2.0443929 0.25799,0.8321642 0.39871,1.7865137 0.42216,2.7938062 0,0 0,14.9912536 0,14.9912536 z M 244.83951,8.4358066 c 0,-0.6924416 -0.0938,-1.1901888 -0.32835,-1.6382572 -0.11727,-0.1894105 -0.3049,-0.3193571 -0.51597,-0.348697 -0.44562,-0.06194 -0.65671,0.3934303 -0.75053,0.8304798 -0.0703,0.2672002 -0.0938,0.5755399 -0.0938,0.9217633 0,0 0,14.9914395 0,14.9914395 0,0.727068 0.11726,1.228074 0.3518,1.641506 0.11726,0.189405 0.28144,0.316081 0.49253,0.345411 0.44561,0.06192 0.65669,-0.324221 0.75051,-0.830518 0.0703,-0.23258 0.0938,-0.540921 0.0938,-0.921764 0,0 1e-5,-14.9913634 1e-5,-14.9913634 z"
           id="path891" />
        <path
           inkscape:connector-curvature="0"
           style="font-style:normal;font-variant:normal;font-weight:normal;font-stretch:normal;font-size:23.10475349px;line-height:1.25;font-family:'League Gothic';-inkscape-font-specification:'League Gothic, Normal';font-variant-ligatures:normal;font-variant-caps:normal;font-variant-numeric:normal;font-feature-settings:normal;text-align:start;letter-spacing:0px;word-spacing:0px;writing-mode:lr-tb;text-anchor:start;fill:#ffffff;fill-opacity:1;stroke:none;stroke-width:1.62230623"
           d="m 250.7341,29.516551 c 0,0 -2.46864,-0.141084 -2.46864,-0.141084 0,0 2.7714,-13.496653 2.7714,-13.496653 0,0 -2.72482,-12.5016841 -2.72482,-12.5016841 0,0 2.46864,0.1409242 2.46864,0.1409242 0,0 1.37406,6.6583459 1.37406,6.6583459 0,0 0.0699,0.322372 0.0699,0.322372 0,0 0.0931,0.0053 0.0931,0.0053 0,0 0.0699,-0.314395 0.0699,-0.314395 0,0 1.37406,-6.5014718 1.37406,-6.5014718 0,0 2.46864,0.1409242 2.46864,0.1409242 0,0 -2.72482,12.1906636 -2.72482,12.1906636 0,0 2.7714,13.813509 2.7714,13.813509 0,0 -2.46864,-0.141084 -2.46864,-0.141084 0,0 -1.44393,-7.829835 -1.44393,-7.829835 0,0 -0.0466,-0.321044 -0.0466,-0.321044 0,0 -0.0931,-0.0053 -0.0931,-0.0053 0,0 -0.0466,0.315723 -0.0466,0.315723 0,0 -1.44391,7.664791 -1.44391,7.664791 z"
           id="path893" />
        <path
           id="path944"
           d="m 269.24558,0.17776685 c -4.94279,1.28295705 -5.83237,-0.10765437 -10.86239,-0.019637 l 1.05834,3.69176425 1.72185,26.0893629 c 2.21792,-0.314132 9.98352,-1.806157 12.18324,-2.377114 z"
           style="opacity:0.5;fill:#000000;stroke:#000000;stroke-width:0;stroke-miterlimit:4;stroke-dasharray:none"
           inkscape:connector-curvature="0"
           sodipodi:nodetypes="cccccc" />
        <path
           id="path972"
           d="m 146.89026,-8.0325845 c -1.13713,1.7141582 -3.88297,4.5231171 -6.36447,5.5092244 V 26.845389 c 5.05833,-3.0351 6.69693,-3.627824 11.78842,-5.121134 l -1.95802,-1.973523 v 0.02015 l -0.003,-0.02067 -0.0238,-0.0016 0.016,-0.05478 c -1.16084,-8.525903 0.35874,-21.853542 -3.45513,-27.7264165 z"
           style="opacity:0.5;fill:#000000;stroke:#000000;stroke-width:0;stroke-miterlimit:4;stroke-dasharray:none"
           inkscape:connector-curvature="0"
           sodipodi:nodetypes="cccccccccc" />
      </g>
      <g
         style="opacity:1"
         transform="matrix(0.1461572,0,0,0.1461572,1053.7371,502.15777)"
         id="g1060">
        <g
           style="fill:#ffffff"
           id="g1001">
	<g
   style="fill:#ffffff"
   id="g999">
		<polygon
   style="fill:#ffffff"
   points="65.296,54.902 244.1,54.902 240.086,41.984 68.244,41.984 "
   id="polygon993" />

		<path
   inkscape:connector-curvature="0"
   style="fill:#ffffff"
   d="M 310.135,145.098 288.379,38.128 H 250.92 l 4.547,23.361 h 8.273 l 14.669,81.798 h -59.465 l 21.963,-36.453 c 6.19,-10.378 2.801,-23.807 -7.577,-30.002 -10.378,-6.195 -23.807,-2.801 -30.002,7.577 l -35.474,58.878 h -43.453 l 0.522,-3.709 c 14.245,-3.383 25.917,-16.301 28.223,-33.102 2.165,-15.79 -4.558,-30.519 -16.007,-38.122 l -5.684,41.451 c -0.31,2.274 -2.41,3.867 -4.683,3.552 l -16.888,-2.317 c -0.049,-0.005 -0.092,-0.027 -0.141,-0.033 l -26.004,-3.563 c 1.246,11.406 7.131,21.316 15.724,27.25 l -1.207,8.594 H 29.115 L 44.692,61.49 h 8.479 L 56.5,38.129 H 21.756 L 0,146.909 V 272.007 H 310.135 Z M 205.134,106.97 212.439,94.727 c 2.54,-4.259 8.055,-5.651 12.309,-3.111 4.259,2.54 5.651,8.055 3.111,12.309 l -7.31,12.243 c -2.54,4.259 -8.055,5.651 -12.309,3.111 -4.254,-2.54 -5.646,-8.056 -3.106,-12.309 z M 34.554,223.061 c 1.996,0 3.9,0.402 5.635,1.137 l -15.909,23.6 c -2.611,-2.622 -4.226,-6.239 -4.226,-10.231 0,-8.011 6.494,-14.506 14.5,-14.506 z m 0,29.007 c -2.056,0 -4.009,-0.441 -5.782,-1.213 l 15.931,-23.633 c 2.681,2.633 4.351,6.288 4.351,10.345 0.006,8.007 -6.488,14.501 -14.5,14.501 z m 239.319,-29.007 c 1.996,0 3.9,0.402 5.635,1.137 l -15.909,23.6 c -2.611,-2.622 -4.226,-6.239 -4.226,-10.231 0,-8.011 6.494,-14.506 14.5,-14.506 z m 0,29.007 c -2.056,0 -4.009,-0.441 -5.782,-1.213 l 15.931,-23.633 c 2.681,2.633 4.351,6.288 4.351,10.345 0.006,8.007 -6.488,14.501 -14.5,14.501 z"
   id="path995" />

		<path
   inkscape:connector-curvature="0"
   style="fill:#ffffff"
   d="m 83.582,100.09 23.187,3.176 5.401,-39.411 c -14.283,3.35 -25.993,16.285 -28.305,33.118 -0.147,1.05 -0.218,2.083 -0.283,3.117 z"
   id="path997" />

	</g>

</g>
        <g
           id="g1003">
</g>
        <g
           id="g1005">
</g>
        <g
           id="g1007">
</g>
        <g
           id="g1009">
</g>
        <g
           id="g1011">
</g>
        <g
           id="g1013">
</g>
        <g
           id="g1015">
</g>
        <g
           id="g1017">
</g>
        <g
           id="g1019">
</g>
        <g
           id="g1021">
</g>
        <g
           id="g1023">
</g>
        <g
           id="g1025">
</g>
        <g
           id="g1027">
</g>
        <g
           id="g1029">
</g>
        <g
           id="g1031">
</g>
      </g>
      <g
         transform="matrix(0.7208137,0,0,0.7208137,1054.7036,533.17564)"
         id="text1066"
         style="font-style:normal;font-weight:normal;font-size:10.58333302px;line-height:1.25;font-family:sans-serif;letter-spacing:0px;word-spacing:0px;opacity:1;fill:#ffffff;fill-opacity:1;stroke:none;stroke-width:0.26458332"
         aria-label="...................">
        <path
           id="path1071"
           style="letter-spacing:0.5291667px;word-spacing:0px;fill:#ffffff;fill-opacity:1"
           d="m 1.3427012,63.317928 0.8214956,0.716978 -0.8630922,0.98891 -0.82149552,-0.716978 z"
           inkscape:connector-curvature="0" />
        <path
           id="path1073"
           style="letter-spacing:0.5291667px;word-spacing:0px;fill:#ffffff;fill-opacity:1"
           d="M 4.1527389,65.633791 5.0299203,66.281452 4.250271,67.337396 3.3730896,66.689734 Z"
           inkscape:connector-curvature="0" />
        <path
           id="path1075"
           style="letter-spacing:0.5291667px;word-spacing:0px;fill:#ffffff;fill-opacity:1"
           d="M 7.140868,67.710728 8.0683443,68.284052 7.3781819,69.40054 6.4507056,68.827216 Z"
           inkscape:connector-curvature="0" />
        <path
           id="path1077"
           style="letter-spacing:0.5291667px;word-spacing:0px;fill:#ffffff;fill-opacity:1"
           d="m 10.288971,69.533766 0.971659,0.494763 -0.595592,1.169675 -0.9716593,-0.494763 z"
           inkscape:connector-curvature="0" />
        <path
           id="path1079"
           style="letter-spacing:0.5291667px;word-spacing:0px;fill:#ffffff;fill-opacity:1"
           d="m 13.5769,71.090418 1.009208,0.412811 -0.496938,1.214875 -1.009208,-0.412811 z"
           inkscape:connector-curvature="0" />
        <path
           id="path1081"
           style="letter-spacing:0.5291667px;word-spacing:0px;fill:#ffffff;fill-opacity:1"
           d="m 16.982848,72.370617 1.039784,0.328269 -0.395167,1.251684 -1.039785,-0.328269 z"
           inkscape:connector-curvature="0" />
        <path
           id="path1083"
           style="letter-spacing:0.5291667px;word-spacing:0px;fill:#ffffff;fill-opacity:1"
           d="m 20.48362,73.366566 1.063206,0.24188 -0.291173,1.279878 -1.063206,-0.24188 z"
           inkscape:connector-curvature="0" />
        <path
           id="path1085"
           style="letter-spacing:0.5291667px;word-spacing:0px;fill:#ffffff;fill-opacity:1"
           d="m 24.055429,74.072762 1.079401,0.154295 -0.185739,1.299373 -1.0794,-0.154295 z"
           inkscape:connector-curvature="0" />
        <path
           id="path1087"
           style="letter-spacing:0.5291667px;word-spacing:0px;fill:#ffffff;fill-opacity:1"
           d="m 27.67407,74.485678 1.088369,0.06608 -0.07954,1.310169 -1.088369,-0.06608 z"
           inkscape:connector-curvature="0" />
        <path
           id="path1089"
           style="letter-spacing:0.5291667px;word-spacing:0px;fill:#ffffff;fill-opacity:1"
           d="m 31.315146,74.603609 1.090145,-0.02228 0.02682,1.312308 -1.090145,0.02228 z"
           inkscape:connector-curvature="0" />
        <path
           id="path1091"
           style="letter-spacing:0.5291667px;word-spacing:0px;fill:#ffffff;fill-opacity:1"
           d="m 34.954286,74.426496 1.084776,-0.110332 0.132816,1.305844 -1.084776,0.110332 z"
           inkscape:connector-curvature="0" />
        <path
           id="path1093"
           style="letter-spacing:0.5291667px;word-spacing:0px;fill:#ffffff;fill-opacity:1"
           d="m 38.567261,73.955859 1.07231,-0.197646 0.237924,1.290838 -1.07231,0.197645 z"
           inkscape:connector-curvature="0" />
        <path
           id="path1095"
           style="letter-spacing:0.5291667px;word-spacing:0px;fill:#ffffff;fill-opacity:1"
           d="m 42.130074,73.194733 1.0528,-0.283771 0.341601,1.267351 -1.052799,0.283771 z"
           inkscape:connector-curvature="0" />
        <path
           id="path1097"
           style="letter-spacing:0.5291667px;word-spacing:0px;fill:#ffffff;fill-opacity:1"
           d="m 45.618981,72.147779 1.02632,-0.368211 0.44325,1.235475 -1.02632,0.368212 z"
           inkscape:connector-curvature="0" />
        <path
           id="path1099"
           style="letter-spacing:0.5291667px;word-spacing:0px;fill:#ffffff;fill-opacity:1"
           d="m 49.010883,70.82133 0.992998,-0.450407 0.542196,1.195363 -0.992999,0.450407 z"
           inkscape:connector-curvature="0" />
        <path
           id="path1101"
           style="letter-spacing:0.5291667px;word-spacing:0px;fill:#ffffff;fill-opacity:1"
           d="m 52.28343,69.223555 0.953048,-0.529728 0.637683,1.14727 -0.953048,0.529729 z"
           inkscape:connector-curvature="0" />
        <path
           id="path1103"
           style="letter-spacing:0.5291667px;word-spacing:0px;fill:#ffffff;fill-opacity:1"
           d="m 55.415103,67.36469 0.906806,-0.605488 0.728881,1.091605 -0.906806,0.605488 z"
           inkscape:connector-curvature="0" />
        <path
           id="path1105"
           style="letter-spacing:0.5291667px;word-spacing:0px;fill:#ffffff;fill-opacity:1"
           d="m 58.386217,65.25686 0.854762,-0.676975 0.814937,1.028955 -0.854762,0.676975 z"
           inkscape:connector-curvature="0" />
        <path
           id="path1107"
           style="letter-spacing:0.5291667px;word-spacing:0px;fill:#ffffff;fill-opacity:1"
           d="m 61.178653,62.914456 0.797578,-0.743494 0.895011,0.960118 -0.797578,0.743493 z"
           inkscape:connector-curvature="0" />
      </g>
    </g>
  </g>
</svg>
