<?xml version="1.0" encoding="iso-8859-1"?>
<!-- Generator: Adobe Illustrator 18.1.1, SVG Export Plug-In . SVG Version: 6.00 Build 0)  -->
<svg version="1.1" id="Capa_1" xmlns="http://www.w3.org/2000/svg" xmlns:xlink="http://www.w3.org/1999/xlink" x="0px" y="0px"
	 viewBox="0 0 310.135 310.135" style="enable-background:new 0 0 310.135 310.135;" xml:space="preserve">
<g>
	<g>
		<polygon style="fill:#010002;" points="240.086,41.984 68.244,41.984 65.296,54.902 244.1,54.902 		"/>
		<path style="fill:#010002;" d="M310.135,145.098l-21.756-106.97H250.92l4.547,23.361h8.273l14.669,81.798h-59.465l21.963-36.453
			c6.19-10.378,2.801-23.807-7.577-30.002c-10.378-6.195-23.807-2.801-30.002,7.577l-35.474,58.878h-43.453l0.522-3.709
			c14.245-3.383,25.917-16.301,28.223-33.102c2.165-15.79-4.558-30.519-16.007-38.122l-5.684,41.451
			c-0.31,2.274-2.41,3.867-4.683,3.552l-16.888-2.317c-0.049-0.005-0.092-0.027-0.141-0.033l-26.004-3.563
			c1.246,11.406,7.131,21.316,15.724,27.25l-1.207,8.594H29.115l15.577-81.798h8.479l3.329-23.361H21.756L0,146.909v125.098h310.135
			V145.098z M205.134,106.97l7.305-12.243c2.54-4.259,8.055-5.651,12.309-3.111c4.259,2.54,5.651,8.055,3.111,12.309l-7.31,12.243
			c-2.54,4.259-8.055,5.651-12.309,3.111S202.594,111.223,205.134,106.97z M34.554,223.061c1.996,0,3.9,0.402,5.635,1.137
			l-15.909,23.6c-2.611-2.622-4.226-6.239-4.226-10.231C20.054,229.556,26.548,223.061,34.554,223.061z M34.554,252.068
			c-2.056,0-4.009-0.441-5.782-1.213l15.931-23.633c2.681,2.633,4.351,6.288,4.351,10.345
			C49.06,245.574,42.566,252.068,34.554,252.068z M273.873,223.061c1.996,0,3.9,0.402,5.635,1.137l-15.909,23.6
			c-2.611-2.622-4.226-6.239-4.226-10.231C259.373,229.556,265.867,223.061,273.873,223.061z M273.873,252.068
			c-2.056,0-4.009-0.441-5.782-1.213l15.931-23.633c2.681,2.633,4.351,6.288,4.351,10.345
			C288.379,245.574,281.885,252.068,273.873,252.068z"/>
		<path style="fill:#010002;" d="M83.582,100.09l23.187,3.176l5.401-39.411c-14.283,3.35-25.993,16.285-28.305,33.118
			C83.718,98.023,83.647,99.056,83.582,100.09z"/>
	</g>
</g>
<g>
</g>
<g>
</g>
<g>
</g>
<g>
</g>
<g>
</g>
<g>
</g>
<g>
</g>
<g>
</g>
<g>
</g>
<g>
</g>
<g>
</g>
<g>
</g>
<g>
</g>
<g>
</g>
<g>
</g>
</svg>
