<?xml version="1.0" encoding="UTF-8" standalone="no"?>
<svg
   xmlns:dc="http://purl.org/dc/elements/1.1/"
   xmlns:cc="http://creativecommons.org/ns#"
   xmlns:rdf="http://www.w3.org/1999/02/22-rdf-syntax-ns#"
   xmlns:svg="http://www.w3.org/2000/svg"
   xmlns="http://www.w3.org/2000/svg"
   xmlns:sodipodi="http://sodipodi.sourceforge.net/DTD/sodipodi-0.dtd"
   xmlns:inkscape="http://www.inkscape.org/namespaces/inkscape"
   id="svg8"
   version="1.1"
   viewBox="0 0 177.34373 177.34373"
   height="177.34373mm"
   width="177.34373mm"
   sodipodi:docname="logout.svg"
   inkscape:version="0.92.3 (2405546, 2018-03-11)">
  <sodipodi:namedview
     pagecolor="#ffffff"
     bordercolor="#666666"
     borderopacity="1"
     objecttolerance="10"
     gridtolerance="10"
     guidetolerance="10"
     inkscape:pageopacity="0"
     inkscape:pageshadow="2"
     inkscape:window-width="1920"
     inkscape:window-height="1017"
     id="namedview3048"
     showgrid="false"
     fit-margin-top="0"
     fit-margin-left="0"
     fit-margin-right="0"
     fit-margin-bottom="0"
     inkscape:zoom="0.88193771"
     inkscape:cx="268.57336"
     inkscape:cy="323.68576"
     inkscape:window-x="-8"
     inkscape:window-y="-8"
     inkscape:window-maximized="1"
     inkscape:current-layer="svg8" />
  <defs
     id="defs2" />
  <metadata
     id="metadata5">
    <rdf:RDF>
      <cc:Work
         rdf:about="">
        <dc:format>image/svg+xml</dc:format>
        <dc:type
           rdf:resource="http://purl.org/dc/dcmitype/StillImage" />
        <dc:title></dc:title>
      </cc:Work>
    </rdf:RDF>
  </metadata>
  <path
     style="fill:#000000;stroke-width:0.99999994"
     d="M 335.13867 0 A 335.13777 335.13777 0 0 0 0 335.13867 A 335.13777 335.13777 0 0 0 335.13867 670.27539 A 335.13777 335.13777 0 0 0 670.27539 335.13867 A 335.13777 335.13777 0 0 0 335.13867 0 z M 215.41797 231.76172 C 224.77899 231.38377 234.16247 244.43767 236.20508 254.66992 L 294.10742 254.66992 C 308.76443 254.66992 320.56445 266.46994 320.56445 281.12695 L 320.56445 346.40234 C 320.56445 361.05935 308.76443 372.85938 294.10742 372.85938 L 236.72266 372.85938 L 236.72266 373.67578 C 236.72266 388.33279 222.20628 408.63274 210.26562 400.13281 L 204.58984 396.0918 C 192.64919 387.59187 94.289055 339.84451 94.289062 325.1875 L 94.289062 317.49219 C 94.289074 302.83518 193.30754 244.46962 205.59961 236.48633 L 210.26562 233.45703 C 211.95077 232.36259 213.68445 231.83171 215.41797 231.76172 z "
     transform="scale(0.26458333)"
     id="path3050" />
  <g
     transform="translate(-38.133347,-23.619152)"
     id="layer1"
     style="fill:#ffffff">
    <path
       style="fill:#ffffff;stroke-width:0.26458332"
       d="m 103.16631,51.646713 v 30.201256 h 9.35447 V 62.604701 h 49.97938 l -34.74517,20.312454 0.80202,94.880515 33.94315,-20.84679 h 9.62163 V 51.646713 Z"
       id="path3056" />
    <path
       style="fill:#ffffff;stroke-width:0.26458332"
       d="m 135.63875,122.42069 c 1.42379,0.0277 2.43148,1.48291 2.44584,3.87263 0.019,3.18617 -1.72975,6.83047 -3.90622,8.14007 -2.1766,1.30955 -3.96182,-0.21516 -3.98735,-3.40548 -0.0254,-3.19059 1.7238,-6.83523 3.90674,-8.14059 0.5457,-0.32627 1.06639,-0.47585 1.54099,-0.46663 z"
       id="path3054"
       inkscape:connector-curvature="0" />
    <path
       style="fill:#ffffff;stroke-width:0.26458332"
       d="m 103.16631,128.88747 v 28.06341 h 9.35447 v -28.06341 z"
       id="rect3087"
       inkscape:connector-curvature="0" />
  </g>
</svg>
