<?xml version="1.0" encoding="UTF-8" standalone="no"?>
<svg
   xmlns:dc="http://purl.org/dc/elements/1.1/"
   xmlns:cc="http://creativecommons.org/ns#"
   xmlns:rdf="http://www.w3.org/1999/02/22-rdf-syntax-ns#"
   xmlns:svg="http://www.w3.org/2000/svg"
   xmlns="http://www.w3.org/2000/svg"
   xmlns:sodipodi="http://sodipodi.sourceforge.net/DTD/sodipodi-0.dtd"
   xmlns:inkscape="http://www.inkscape.org/namespaces/inkscape"
   id="svg8"
   version="1.1"
   viewBox="0 0 106.64086 126.15096"
   height="126.15096mm"
   width="106.64086mm"
   sodipodi:docname="logout.svg">
  <sodipodi:namedview
     pagecolor="#ffffff"
     bordercolor="#666666"
     borderopacity="1"
     objecttolerance="10"
     gridtolerance="10"
     guidetolerance="10"
     inkscape:pageopacity="0"
     inkscape:pageshadow="2"
     inkscape:window-width="640"
     inkscape:window-height="480"
     id="namedview6975"
     showgrid="false" />
  <defs
     id="defs2" />
  <metadata
     id="metadata5">
    <rdf:RDF>
      <cc:Work
         rdf:about="">
        <dc:format>image/svg+xml</dc:format>
        <dc:type
           rdf:resource="http://purl.org/dc/dcmitype/StillImage" />
        <dc:title />
      </cc:Work>
    </rdf:RDF>
  </metadata>
  <circle
     style="fill:#000000;stroke-width:0.99999994"
     id="path6977"
     cx="47.152431"
     cy="54.808105"
     r="81.926178" />
  <g
     transform="translate(-85.520657,-52.808124)"
     id="layer1"
     style="fill:#ffffff">
    <path
       style="fill:#ffffff;stroke-width:0.26458332"
       d="M 96.821534,88.046491 C 93.569257,90.158736 67.370806,105.60113 67.370803,109.47913 v 2.03616 c -2e-6,3.878 26.024165,16.51101 29.183462,18.75995 l 1.501833,1.06907 c 3.159302,2.24894 7.000092,-3.12208 7.000092,-7.00008 v -0.21601 h 15.18305 c 3.878,0 7.00009,-3.12209 7.00009,-7.00009 V 99.857348 c 0,-3.878001 -3.12209,-7.00009 -7.00009,-7.00009 h -15.31999 c -0.64052,-3.208631 -4.00965,-7.465832 -6.863152,-5.612577 z"
       id="path6987" />
    <path
       style="fill:#ffffff;stroke-width:0.26458332"
       d="m 105.05619,54.103553 v 30.201256 h 9.35447 V 65.061541 h 49.97938 l -34.74517,20.312454 0.80202,94.880515 33.94315,-20.84679 h 9.62163 V 54.103553 Z"
       id="path6985" />
    <path
       style="fill:#ffffff;stroke-width:0.26458332"
       d="m 137.52863,124.87753 c 1.42379,0.0277 2.43148,1.48291 2.44584,3.87263 0.019,3.18617 -1.72975,6.83047 -3.90622,8.14007 -2.1766,1.30955 -3.96182,-0.21516 -3.98735,-3.40548 -0.0254,-3.19059 1.7238,-6.83523 3.90674,-8.14059 0.5457,-0.32627 1.06639,-0.47585 1.54099,-0.46663 z"
       id="path6983" />
    <path
       style="fill:#ffffff;stroke-width:0.26458332"
       d="m 105.05619,131.34431 v 28.06341 h 9.35447 v -28.06341 z"
       id="rect3087" />
  </g>
</svg>
