<?xml version="1.0" encoding="UTF-8" standalone="no"?>
<svg
   xmlns:dc="http://purl.org/dc/elements/1.1/"
   xmlns:cc="http://creativecommons.org/ns#"
   xmlns:rdf="http://www.w3.org/1999/02/22-rdf-syntax-ns#"
   xmlns:svg="http://www.w3.org/2000/svg"
   xmlns="http://www.w3.org/2000/svg"
   xmlns:sodipodi="http://sodipodi.sourceforge.net/DTD/sodipodi-0.dtd"
   xmlns:inkscape="http://www.inkscape.org/namespaces/inkscape"
   id="svg3099"
   version="1.1"
   viewBox="0 0 65.694804 65.958458"
   height="73.287178mm"
   width="72.994225mm"
   sodipodi:docname="register.svg">
  <sodipodi:namedview
     pagecolor="#ffffff"
     bordercolor="#666666"
     borderopacity="1"
     objecttolerance="10"
     gridtolerance="10"
     guidetolerance="10"
     inkscape:pageopacity="0"
     inkscape:pageshadow="2"
     inkscape:window-width="640"
     inkscape:window-height="480"
     id="namedview3048"
     showgrid="false" />
  <defs
     id="defs3093" />
  <metadata
     id="metadata3096">
    <rdf:RDF>
      <cc:Work
         rdf:about="">
        <dc:format>image/svg+xml</dc:format>
        <dc:type
           rdf:resource="http://purl.org/dc/dcmitype/StillImage" />
        <dc:title />
      </cc:Work>
    </rdf:RDF>
  </metadata>
  <circle
     style="fill:#000000;stroke-width:1"
     id="path3050"
     cx="37.802589"
     cy="40.390732"
     r="45.645451" />
  <path
     id="path3054"
     style="fill:#ffffff;stroke-width:0.15685721"
     d="m 53.251922,70.593533 c -1.644948,-0.293794 -2.558024,-0.594274 -4.061027,-1.336424 -1.730028,-0.85425 -2.988256,-1.792757 -4.343156,-3.239543 -4.108707,-4.387351 -5.170535,-10.766095 -2.697195,-16.202903 1.739549,-3.823811 5.034139,-6.683645 9.297522,-8.070613 1.172008,-0.381279 1.636864,-0.441803 3.843001,-0.500353 2.310653,-0.06132 2.634127,-0.03455 4.078286,0.337654 4.687386,1.208065 8.429208,4.528549 10.207459,9.05807 2.278827,5.804592 0.421809,12.81693 -4.441746,16.772584 -3.34998,2.724623 -7.788223,3.912896 -11.883144,3.181528 z m 3.031533,-5.009869 c 0.333628,-0.13349 0.776216,-0.468773 0.983533,-0.745071 0.36391,-0.484999 0.378611,-0.609755 0.425382,-3.609821 l 0.04844,-3.107462 3.184993,0.03552 c 3.000868,0.03347 3.215697,0.01638 3.716128,-0.295272 0.64826,-0.403741 0.887385,-0.774762 1.015432,-1.575521 0.129466,-0.809639 -0.345841,-1.891094 -1.052736,-2.395261 -0.511214,-0.364605 -0.639611,-0.37936 -3.705918,-0.425875 l -3.176359,-0.04819 v -2.934904 c 0,-2.901846 -0.0046,-2.941661 -0.407636,-3.534794 -0.972108,-1.430584 -2.994044,-1.377213 -3.841033,0.101389 -0.355551,0.620694 -0.381759,0.834773 -0.430156,3.513841 l -0.05154,2.85288 -2.784648,0.04898 c -2.758061,0.04851 -2.790006,0.05307 -3.346102,0.477636 -1.013681,0.77392 -1.307739,2.224545 -0.653384,3.223217 0.513243,0.783307 1.308664,0.9682 4.181421,0.971969 l 2.627359,0.0035 0.0069,2.705788 c 0.0087,3.429476 0.254353,4.21777 1.483259,4.760221 0.623597,0.275263 1.04543,0.269869 1.776674,-0.02272 z M 26.194053,73.103097 C 18.761391,72.602848 10.929475,71.682043 8.2471605,70.993069 c -1.782457,-0.457841 -2.094767,-0.617216 -2.378865,-1.213966 -0.751269,-1.578047 -1.014305,-4.954784 -0.63356,-8.133362 0.33238,-2.774815 0.674201,-3.647903 1.894374,-4.838654 1.18868,-1.160017 2.5624911,-1.855811 5.4183665,-2.744238 4.391857,-1.366252 5.112997,-1.611442 5.879383,-1.999022 2.154872,-1.089767 3.79361,-2.624658 4.241301,-3.972532 0.326177,-0.982025 0.32973,-3.594475 0.0061,-4.511637 -0.338183,-0.958515 -0.592922,-1.273259 -2.058572,-2.54347 -1.184626,-1.026662 -1.421952,-1.323116 -1.94096,-2.424539 -0.32522,-0.690172 -0.723771,-1.729473 -0.885668,-2.30956 -0.238248,-0.853654 -0.373255,-1.087383 -0.708251,-1.226144 -1.116778,-0.462584 -2.165976,-2.329653 -2.298432,-4.090101 -0.08745,-1.162291 0.217179,-2.338864 0.84741,-3.272966 0.303954,-0.450511 0.36944,-0.75279 0.373797,-1.72543 0.01851,-4.131204 1.093759,-9.126454 2.460344,-11.429895 1.873851,-3.158463 4.650944,-5.341406 8.129976,-6.3905958 1.23475,-0.3723699 1.734839,-0.4314249 4.148976,-0.4899498 2.540913,-0.061598 2.858193,-0.037379 4.267428,0.3257478 2.606093,0.6715294 5.20397,2.0685058 6.838248,3.6771838 0.958122,0.943112 1.962504,2.419718 2.633021,3.870959 1.092765,2.365149 2.103882,7.346382 2.103882,10.36471 0,1.210289 0.03929,1.380849 0.448085,1.945172 0.727317,1.004032 0.895633,1.865364 0.669781,3.427452 -0.274346,1.897468 -0.82461,2.862836 -2.067882,3.627827 -0.674694,0.415144 -0.738626,0.513612 -0.987038,1.520249 -0.388193,1.573071 -1.078265,2.928023 -1.973106,3.874187 -0.670241,0.708679 -0.877931,1.090069 -1.387325,2.547589 -0.456603,1.306468 -0.817334,2.01258 -1.516764,2.968997 -2.504027,3.424054 -3.764906,7.793003 -3.390242,11.747206 0.41197,4.347963 1.739557,7.538659 4.232476,10.172255 1.359184,1.435884 2.44612,2.286169 4.494402,3.51587 1.483962,0.890904 1.492906,0.859586 -0.326245,1.142666 -3.434032,0.534379 -5.529456,0.663224 -11.529005,0.708906 -3.407724,0.02595 -6.584082,0.02105 -7.058575,-0.01088 z"
     inkscape:connector-curvature="0" />
</svg>
