<?xml version="1.0" encoding="UTF-8" standalone="no"?>
<svg
   xmlns:dc="http://purl.org/dc/elements/1.1/"
   xmlns:cc="http://creativecommons.org/ns#"
   xmlns:rdf="http://www.w3.org/1999/02/22-rdf-syntax-ns#"
   xmlns:svg="http://www.w3.org/2000/svg"
   xmlns="http://www.w3.org/2000/svg"
   xmlns:sodipodi="http://sodipodi.sourceforge.net/DTD/sodipodi-0.dtd"
   xmlns:inkscape="http://www.inkscape.org/namespaces/inkscape"
   id="svg3099"
   version="1.1"
   viewBox="0 0 90.273562 90.273557"
   height="100.30396mm"
   width="100.30396mm"
   sodipodi:docname="register.svg"
   inkscape:version="0.92.3 (2405546, 2018-03-11)">
  <sodipodi:namedview
     pagecolor="#ffffff"
     bordercolor="#666666"
     borderopacity="1"
     objecttolerance="10"
     gridtolerance="10"
     guidetolerance="10"
     inkscape:pageopacity="0"
     inkscape:pageshadow="2"
     inkscape:window-width="1920"
     inkscape:window-height="1017"
     id="namedview3073"
     showgrid="false"
     fit-margin-top="0"
     fit-margin-left="0"
     fit-margin-right="0"
     fit-margin-bottom="0"
     inkscape:zoom="1.704027"
     inkscape:cx="146.12768"
     inkscape:cy="220.14545"
     inkscape:window-x="-8"
     inkscape:window-y="-8"
     inkscape:window-maximized="1"
     inkscape:current-layer="layer1" />
  <defs
     id="defs3093" />
  <metadata
     id="metadata3096">
    <rdf:RDF>
      <cc:Work
         rdf:about="">
        <dc:format>image/svg+xml</dc:format>
        <dc:type
           rdf:resource="http://purl.org/dc/dcmitype/StillImage" />
        <dc:title></dc:title>
      </cc:Work>
    </rdf:RDF>
  </metadata>
  <g
     transform="translate(-61.076874,-103.99786)"
     id="layer1">
    <path
       style="fill:#000000;stroke-width:0.99999994"
       d="M 189.55078,0 A 189.55097,189.55097 0 0 0 0,189.55078 189.55097,189.55097 0 0 0 189.55078,379.10156 189.55097,189.55097 0 0 0 379.10156,189.55078 189.55097,189.55097 0 0 0 189.55078,0 Z m -22.49805,45.189453 c 10.88306,-0.151386 20.85894,2.153045 30.70118,7.027344 10.29119,5.096651 17.32679,11.370147 22.83398,20.363281 3.46255,5.654215 5.77309,11.661781 8.26367,21.478516 2.5616,10.096676 3.50322,16.965996 3.75586,27.388676 l 0.16797,6.88281 1.21484,1.38867 c 1.51992,1.73623 2.77353,4.06339 3.35352,6.2207 0.86786,3.22806 0.40224,10.62859 -0.93945,14.91407 -1.34148,4.28539 -4.88473,8.62401 -8.57422,10.5 -1.71339,0.87118 -1.93463,1.08344 -2.20117,2.09375 -1.92278,7.28718 -2.90378,10.01883 -5.13672,14.30859 -1.18719,2.28078 -1.99937,3.36456 -4.4336,5.92578 -2.73469,2.8774 -3.06044,3.34078 -3.97265,5.63672 -0.54656,1.37575 -1.40914,3.89218 -1.91602,5.5918 -1.33476,4.47542 -2.20469,6.21407 -5.17969,10.35156 -6.48781,9.02286 -10.02541,16.05508 -12.70312,25.25 -3.10022,10.64579 -3.50272,21.73005 -1.22266,33.64648 2.88047,15.05424 7.69985,24.89447 16.81641,34.33203 6.31618,6.53859 12.38683,11.05757 21.55273,16.04688 2.18608,1.19 3.74095,2.19583 3.51758,2.27344 -1.74223,0.60535 -14.17276,2.45998 -20.66797,3.08398 -16.7819,1.61222 -39.87519,2.4034 -53.96875,1.84961 -11.70792,-0.46005 -31.43982,-1.94065 -46.95507,-3.52344 -22.72727,-2.31853 -41.994571,-5.61037 -47.468755,-8.11132 -2.361953,-1.07906 -3.665276,-3.64606 -4.861328,-9.57227 -1.69495,-8.39828 -1.826835,-17.15987 -0.443359,-29.63672 1.392209,-12.55563 4.263441,-17.54966 13.375,-23.26367 5.039915,-3.16065 12.531429,-5.97575 26.589843,-9.99024 4.025659,-1.14952 8.620279,-2.60605 10.208989,-3.23828 8.40659,-3.34559 16.18383,-8.52567 19.8789,-13.23828 1.94029,-2.47454 2.82086,-4.26443 3.58789,-7.29687 0.55244,-2.18407 0.59043,-2.881 0.44727,-8.14844 -0.17344,-6.38992 -0.44584,-7.88962 -2.0293,-11.12695 -1.05104,-2.14875 -3.76379,-4.97622 -9.52148,-9.92774 -1.51795,-1.3054 -3.19647,-2.96739 -3.73047,-3.69336 -2.1944,-2.98309 -5.68006,-11.48216 -6.75391,-16.46875 l -0.47656,-2.21484 -2.08984,-0.93945 c -3.65985,-1.64347 -6.38759,-5.30124 -8.400395,-11.26563 -1.659633,-4.91779 -1.840548,-7.78384 -0.787109,-12.48633 0.57264,-2.5563 2.264964,-6.46196 3.564454,-8.22851 l 1.02734,-1.39844 0.004,-3.47461 c 0.004,-7.33182 0.93099,-16.81375 2.39648,-24.550781 2.92989,-15.468388 5.86497,-22.950363 12.33594,-31.445313 9.48275,-12.448797 22.1513,-19.973588 37.62695,-22.349609 3.8579,-0.592305 7.58521,-0.914382 11.21289,-0.964844 z M 270.59375,186.24219 c 3.3271,-0.002 6.68707,0.16236 8.95703,0.49219 21.91799,3.17627 40.15542,17.13004 48.86719,37.39062 9.67294,22.49583 5.20437,48.53953 -11.51953,67.14258 -12.49571,13.89976 -31.43272,21.40024 -50.70508,20.08203 v -0.002 c -27.365,-1.87171 -50.91794,-22.09328 -56.84961,-48.81055 -1.44067,-6.48907 -1.86608,-15.67172 -1.01758,-21.97656 1.4636,-10.87517 5.46468,-20.66669 12.0293,-29.44141 2.30484,-3.08082 7.83612,-8.75027 10.78906,-11.05859 9.10984,-7.12114 19.34736,-11.56483 30.68359,-13.31836 2.14293,-0.33149 5.43853,-0.49832 8.76563,-0.5 z M 269,207.07422 c -1.28172,0.0356 -2.51672,0.26816 -3.44336,0.69336 -2.66994,1.2254 -4.65693,3.9374 -5.27148,7.19531 C 260.12264,215.82387 260,221.2435 260,227.53516 v 11.05859 h -10.78711 c -12.12342,0 -12.50161,0.0476 -15.1543,1.94336 -5.18202,3.70297 -5.93385,11.45596 -1.43164,14.77148 0.73252,0.53943 2.15571,1.25595 3.16211,1.59375 1.73271,0.58155 2.42354,0.62042 13.01953,0.72852 L 260,257.74609 v 11.33789 c 0,7.21798 0.11191,11.88048 0.31055,12.82813 0.70832,3.37856 3.21748,6.54432 5.85547,7.38867 1.95187,0.62472 5.46494,0.4188 7.20898,-0.42383 1.93083,-0.93274 3.67886,-2.77875 4.73242,-4.99804 l 0.89453,-1.88282 0.0859,-12.15039 0.0879,-12.15039 h 11.36133 c 8.22908,0 11.38961,0.0889 11.4668,0.32031 0.16462,0.49298 4.25429,-0.436 5.73632,-1.30273 3.10375,-1.8151 4.48891,-4.31175 4.45313,-8.0332 -0.0168,-1.7687 -0.16731,-2.44366 -0.875,-3.9336 -1.03534,-2.17927 -3.02661,-4.21195 -5.14063,-5.24804 l -1.55859,-0.76367 -12.72461,-0.082 -12.72461,-0.0801 -0.084,-11.85938 c -0.0848,-11.78167 -0.0895,-11.8683 -0.76367,-13.54297 -0.93271,-2.31727 -3.53158,-4.91692 -5.59961,-5.60156 -1.11337,-0.36857 -2.44094,-0.52975 -3.72266,-0.49414 z"
       id="path3080"
       transform="matrix(0.238125,0,0,0.238125,61.076874,103.99786)"
       inkscape:connector-curvature="0" />
  </g>
  <g
     inkscape:groupmode="layer"
     id="layer2"
     inkscape:label="Layer 1"
     transform="translate(13.275528,10.620426)" />
</svg>
