<?xml version="1.0" encoding="UTF-8" standalone="no"?>
<svg
   xmlns:dc="http://purl.org/dc/elements/1.1/"
   xmlns:cc="http://creativecommons.org/ns#"
   xmlns:rdf="http://www.w3.org/1999/02/22-rdf-syntax-ns#"
   xmlns:svg="http://www.w3.org/2000/svg"
   xmlns="http://www.w3.org/2000/svg"
   xmlns:sodipodi="http://sodipodi.sourceforge.net/DTD/sodipodi-0.dtd"
   xmlns:inkscape="http://www.inkscape.org/namespaces/inkscape"
   width="31.016949"
   height="31.016949"
   viewBox="0 0 31.016949 31.016949"
   version="1.1"
   id="svg6"
   sodipodi:docname="save_alt.svg"
   inkscape:version="0.92.3 (2405546, 2018-03-11)">
  <metadata
     id="metadata12">
    <rdf:RDF>
      <cc:Work
         rdf:about="">
        <dc:format>image/svg+xml</dc:format>
        <dc:type
           rdf:resource="http://purl.org/dc/dcmitype/StillImage" />
        <dc:title></dc:title>
      </cc:Work>
    </rdf:RDF>
  </metadata>
  <defs
     id="defs10" />
  <sodipodi:namedview
     pagecolor="#ffffff"
     bordercolor="#666666"
     borderopacity="1"
     objecttolerance="10"
     gridtolerance="10"
     guidetolerance="10"
     inkscape:pageopacity="0"
     inkscape:pageshadow="2"
     inkscape:window-width="1920"
     inkscape:window-height="1017"
     id="namedview8"
     showgrid="false"
     inkscape:zoom="9.8333333"
     inkscape:cx="15.661017"
     inkscape:cy="16.169492"
     inkscape:window-x="-8"
     inkscape:window-y="-8"
     inkscape:window-maximized="1"
     inkscape:current-layer="svg6" />
  <path
     style="fill:#000000"
     d="M 15.507812 0 A 15.508474 15.508474 0 0 0 0 15.507812 A 15.508474 15.508474 0 0 0 15.507812 31.017578 A 15.508474 15.508474 0 0 0 31.017578 15.507812 A 15.508474 15.508474 0 0 0 15.507812 0 z M 14.507812 6.5078125 L 16.507812 6.5078125 L 16.507812 16.177734 L 19.097656 13.597656 L 20.507812 15.007812 L 15.507812 20.007812 L 10.507812 15.007812 L 11.917969 13.597656 L 14.507812 16.177734 L 14.507812 6.5078125 z M 6.5078125 15.507812 L 8.5078125 15.507812 L 8.5078125 22.507812 L 22.507812 22.507812 L 22.507812 15.507812 L 24.507812 15.507812 L 24.507812 22.507812 C 24.507812 23.607812 23.607813 24.507812 22.507812 24.507812 L 8.5078125 24.507812 C 7.4078125 24.507812 6.5078125 23.607813 6.5078125 22.507812 L 6.5078125 15.507812 z "
     id="path3047" />
  <path
     d="M 3.7627115,2.8474569 H 27.762712 V 26.847457 H 3.7627115 Z"
     id="path4"
     inkscape:connector-curvature="0"
     style="fill:none" />
</svg>
